<?xml version="1.0" encoding="UTF-8" standalone="no"?>
<!-- Generator: Adobe Illustrator 16.0.0, SVG Export Plug-In . SVG Version: 6.00 Build 0)  -->

<svg
   version="1.1"
   id="Capa_1"
   x="0px"
   y="0px"
   width="512px"
   height="512px"
   viewBox="0 0 512 512"
   style="enable-background:new 0 0 512 512;"
   xml:space="preserve"
   sodipodi:docname="enter_icon.svg"
   inkscape:version="1.1 (c68e22c387, 2021-05-23)"
   xmlns:inkscape="http://www.inkscape.org/namespaces/inkscape"
   xmlns:sodipodi="http://sodipodi.sourceforge.net/DTD/sodipodi-0.dtd"
   xmlns="http://www.w3.org/2000/svg"
   xmlns:svg="http://www.w3.org/2000/svg"><defs
   id="defs39" /><sodipodi:namedview
   id="namedview37"
   pagecolor="#ffffff"
   bordercolor="#666666"
   borderopacity="1.0"
   inkscape:pageshadow="2"
   inkscape:pageopacity="0.0"
   inkscape:pagecheckerboard="0"
   showgrid="false"
   inkscape:zoom="0.82226563"
   inkscape:cx="12.769596"
   inkscape:cy="281.53919"
   inkscape:window-width="1920"
   inkscape:window-height="1046"
   inkscape:window-x="-11"
   inkscape:window-y="-11"
   inkscape:window-maximized="1"
   inkscape:current-layer="Capa_1" />
<g
   id="g4">
	<path
   d="M176,256H16v-64h160v-64l96,96l-96,96V256z M496,0v416l-192,96v-96H112V288h32v96h160V96l128-64H144v128h-32V0H496z"
   id="path2" />
</g>
<g
   id="g6">
</g>
<g
   id="g8">
</g>
<g
   id="g10">
</g>
<g
   id="g12">
</g>
<g
   id="g14">
</g>
<g
   id="g16">
</g>
<g
   id="g18">
</g>
<g
   id="g20">
</g>
<g
   id="g22">
</g>
<g
   id="g24">
</g>
<g
   id="g26">
</g>
<g
   id="g28">
</g>
<g
   id="g30">
</g>
<g
   id="g32">
</g>
<g
   id="g34">
</g>
<path
   style="fill:#302718;stroke-width:0.608076;fill-opacity:1"
   d="M 304.038,463.65796 V 415.92399 H 208.26603 112.49406 V 352.07601 288.22803 H 128 143.50594 v 48.038 48.03801 H 223.77197 304.038 V 240.33973 96.375414 L 367.93249,64.45374 C 403.07444,46.89682 431.959,32.326841 432.12039,32.07601 432.28178,31.825178 367.40955,31.619952 287.95988,31.619952 H 143.50594 V 95.771971 159.92399 H 128 112.49406 V 79.961995 0 H 304.038 495.58195 v 207.96161 207.96161 l -95.46716,47.73435 c -52.50695,26.2539 -95.60433,47.73435 -95.77197,47.73435 -0.16765,0 -0.30482,-21.48028 -0.30482,-47.73396 z"
   id="path911" /><path
   style="fill:#302718;fill-opacity:1;stroke-width:0.608076"
   d="M 176.34204,287.46745 V 256 H 96.380048 16.418052 v -31.92399 -31.92399 h 79.961996 79.961992 v -31.77149 -31.77148 l 47.58146,47.58146 47.58147,47.58146 -47.58147,47.58146 -47.58146,47.58146 z"
   id="path987" /></svg>
