<?xml version="1.0" encoding="UTF-8" standalone="no"?>
<svg
   version="1.1"
   id="Layer_1"
   x="0px"
   y="0px"
   width="38.418px"
   height="122.879px"
   viewBox="0 0 38.418 122.879"
   enable-background="new 0 0 38.418 122.879"
   xml:space="preserve"
   sodipodi:docname="error-icon.svg"
   inkscape:version="1.1 (c68e22c387, 2021-05-23)"
   xmlns:inkscape="http://www.inkscape.org/namespaces/inkscape"
   xmlns:sodipodi="http://sodipodi.sourceforge.net/DTD/sodipodi-0.dtd"
   xmlns="http://www.w3.org/2000/svg"
   xmlns:svg="http://www.w3.org/2000/svg"><defs
     id="defs9" /><sodipodi:namedview
     id="namedview7"
     pagecolor="#ffffff"
     bordercolor="#666666"
     borderopacity="1.0"
     inkscape:pageshadow="2"
     inkscape:pageopacity="0.0"
     inkscape:pagecheckerboard="0"
     showgrid="false"
     inkscape:zoom="6.8522694"
     inkscape:cx="19.190722"
     inkscape:cy="61.439499"
     inkscape:window-width="1920"
     inkscape:window-height="1046"
     inkscape:window-x="-11"
     inkscape:window-y="-11"
     inkscape:window-maximized="1"
     inkscape:current-layer="Layer_1" /><g
     id="g4"
     style="display:inline"><path
       d="m 8.747,98.574 h 20.829 c 1.555,0 2.814,1.26 2.814,2.814 v 18.676 c 0,1.555 -1.26,2.814 -2.814,2.814 H 8.747 c -1.555,0 -2.815,-1.26 -2.815,-2.814 v -18.676 c 0,-1.554 1.26,-2.814 2.815,-2.814 z m 18.014,5.631 H 11.562 V 117.25 H 26.761 Z M 29.576,90.494 H 8.747 c -1.53,0 -2.774,-1.221 -2.814,-2.74 C 5.713,84.816 5.475,82.037 5.221,79.414 4.96,76.719 4.645,73.809 4.278,70.693 3.957,67.966 3.623,65.009 3.279,61.873 2.972,59.075 2.66,56.131 2.344,53.079 2.016,49.907 1.733,46.953 1.499,44.226 1.256,41.402 1.031,38.462 0.824,35.399 0.761,34.469 0.652,33.186 0.537,31.856 -0.227,22.927 -1.174,11.862 5.467,5.22 L 5.469,5.218 C 8.948,1.74 14.104,0 19.217,0 24.33,0 29.485,1.74 32.964,5.218 l 0.002,0.002 c 6.687,6.686 5.677,17.866 4.867,26.827 -0.088,0.974 -0.173,1.915 -0.279,3.362 -0.193,2.62 -0.437,5.569 -0.728,8.827 -0.28,3.144 -0.563,6.085 -0.849,8.842 -0.328,3.167 -0.635,6.084 -0.925,8.794 -0.313,2.93 -0.631,5.861 -0.953,8.797 -0.338,3.078 -0.648,5.998 -0.92,8.701 -0.249,2.479 -0.515,5.299 -0.8,8.549 -0.126,1.469 -1.358,2.574 -2.804,2.572 v 0.003 z m -18.23,-5.631 h 15.659 c 0.17,-1.822 0.367,-3.848 0.588,-6.043 0.309,-3.068 0.615,-5.967 0.92,-8.744 0.322,-2.936 0.641,-5.867 0.954,-8.797 0.336,-3.148 0.646,-6.085 0.924,-8.772 0.322,-3.116 0.606,-6.038 0.849,-8.754 0.232,-2.601 0.468,-5.506 0.706,-8.739 0.053,-0.722 0.175,-2.072 0.301,-3.472 0.704,-7.785 1.581,-17.499 -3.262,-22.341 L 28.984,9.2 C 26.604,6.821 22.932,5.631 19.217,5.631 15.502,5.631 11.829,6.82 9.45,9.2 L 9.448,9.201 c -4.792,4.792 -3.967,14.422 -3.301,22.193 0.1,1.165 0.196,2.288 0.287,3.631 0.188,2.79 0.414,5.704 0.674,8.739 0.27,3.133 0.544,6.042 0.824,8.743 0.29,2.802 0.6,5.712 0.935,8.772 0.299,2.725 0.629,5.631 0.999,8.775 0.327,2.777 0.642,5.721 0.943,8.832 0.201,2.091 0.38,4.083 0.537,5.977 z"
       id="path2"
       style="display:inline;fill:#ff0000;fill-opacity:1" /></g></svg>
