<?xml version="1.0" encoding="UTF-8" standalone="no"?>
<!-- Generator: Adobe Illustrator 16.0.0, SVG Export Plug-In . SVG Version: 6.00 Build 0)  -->

<svg
   version="1.1"
   id="Capa_1"
   x="0px"
   y="0px"
   width="512px"
   height="512px"
   viewBox="0 0 512 512"
   style="enable-background:new 0 0 512 512;"
   xml:space="preserve"
   sodipodi:docname="exit_icon.svg"
   inkscape:version="1.1 (c68e22c387, 2021-05-23)"
   xmlns:inkscape="http://www.inkscape.org/namespaces/inkscape"
   xmlns:sodipodi="http://sodipodi.sourceforge.net/DTD/sodipodi-0.dtd"
   xmlns="http://www.w3.org/2000/svg"
   xmlns:svg="http://www.w3.org/2000/svg"><defs
   id="defs39" /><sodipodi:namedview
   id="namedview37"
   pagecolor="#ffffff"
   bordercolor="#666666"
   borderopacity="1.0"
   inkscape:pageshadow="2"
   inkscape:pageopacity="0.0"
   inkscape:pagecheckerboard="0"
   showgrid="false"
   inkscape:zoom="1.1628592"
   inkscape:cx="65.786124"
   inkscape:cy="219.28708"
   inkscape:window-width="1920"
   inkscape:window-height="1046"
   inkscape:window-x="-11"
   inkscape:window-y="-11"
   inkscape:window-maximized="1"
   inkscape:current-layer="Capa_1" />

<g
   id="g6">
</g>
<g
   id="g8">
</g>
<g
   id="g10">
</g>
<g
   id="g12">
</g>
<g
   id="g14">
</g>
<g
   id="g16">
</g>
<g
   id="g18">
</g>
<g
   id="g20">
</g>
<g
   id="g22">
</g>
<g
   id="g24">
</g>
<g
   id="g26">
</g>
<g
   id="g28">
</g>
<g
   id="g30">
</g>
<g
   id="g32">
</g>
<g
   id="g34">
</g>
<path
   style="fill:#302718;fill-opacity:1;stroke-width:0.608076"
   d="m 191.962,463.65796 v -47.73397 h 95.77197 95.77197 V 352.07601 288.22803 H 368 352.49406 v 48.038 48.03801 H 272.22803 191.962 V 240.33973 96.375414 L 128.06751,64.45374 C 92.92556,46.89682 64.041002,32.326841 63.879612,32.07601 63.718222,31.825178 128.59045,31.619952 208.04012,31.619952 H 352.49406 V 95.771971 159.92399 H 368 383.50594 V 79.961995 0 H 191.962 0.418052 v 207.96161 207.96161 l 95.467158,47.73435 c 52.50695,26.2539 95.60433,47.73435 95.77197,47.73435 0.16765,0 0.30482,-21.48028 0.30482,-47.73396 z"
   id="path911" /><path
   style="fill:#302718;fill-opacity:1;stroke-width:0.608076"
   d="M 416.41902,287.46745 V 256 h -79.96199 -79.962 v -31.92399 -31.92399 h 79.962 79.96199 v -31.77149 -31.77148 l 47.58146,47.58146 47.58147,47.58146 -47.58147,47.58146 -47.58146,47.58146 z"
   id="path987" /></svg>
