<?xml version="1.0" encoding="UTF-8" standalone="no"?>
<svg
   width="34.493454"
   height="32.970364"
   version="1.1"
   id="svg8"
   sodipodi:docname="walmart_logo.svg"
   inkscape:version="1.1 (c68e22c387, 2021-05-23)"
   xmlns:inkscape="http://www.inkscape.org/namespaces/inkscape"
   xmlns:sodipodi="http://sodipodi.sourceforge.net/DTD/sodipodi-0.dtd"
   xmlns="http://www.w3.org/2000/svg"
   xmlns:svg="http://www.w3.org/2000/svg">
  <defs
     id="defs12">
    <clipPath
       clipPathUnits="userSpaceOnUse"
       id="clipPath1100">
      <rect
         style="opacity:1;fill:none;stroke:#302718"
         id="rect1102"
         width="34.493454"
         height="32.970364"
         x="97.298416"
         y="-0.89593381" />
    </clipPath>
    <clipPath
       clipPathUnits="userSpaceOnUse"
       id="clipPath1104">
      <rect
         style="opacity:1;fill:none;stroke:#302718"
         id="rect1106"
         width="34.493454"
         height="32.970364"
         x="97.298416"
         y="-0.89593381" />
    </clipPath>
    <clipPath
       clipPathUnits="userSpaceOnUse"
       id="clipPath1108">
      <rect
         style="opacity:1;fill:none;stroke:#302718"
         id="rect1110"
         width="34.493454"
         height="32.970364"
         x="97.298416"
         y="-0.89593381" />
    </clipPath>
    <clipPath
       clipPathUnits="userSpaceOnUse"
       id="clipPath1112">
      <rect
         style="opacity:1;fill:none;stroke:#302718"
         id="rect1114"
         width="34.493454"
         height="32.970364"
         x="97.298416"
         y="-0.89593381" />
    </clipPath>
    <clipPath
       clipPathUnits="userSpaceOnUse"
       id="clipPath1116">
      <rect
         style="opacity:1;fill:none;stroke:#302718"
         id="rect1118"
         width="34.493454"
         height="32.970364"
         x="97.298416"
         y="-0.89593381" />
    </clipPath>
  </defs>
  <sodipodi:namedview
     id="namedview10"
     pagecolor="#ffffff"
     bordercolor="#666666"
     borderopacity="1.0"
     inkscape:pageshadow="2"
     inkscape:pageopacity="0.0"
     inkscape:pagecheckerboard="0"
     showgrid="false"
     inkscape:zoom="5.5807692"
     inkscape:cx="-0.71674707"
     inkscape:cy="-8.6009648"
     inkscape:window-width="1920"
     inkscape:window-height="1046"
     inkscape:window-x="-11"
     inkscape:window-y="-11"
     inkscape:window-maximized="1"
     inkscape:current-layer="svg8"
     fit-margin-top="0"
     fit-margin-left="0"
     fit-margin-right="0"
     fit-margin-bottom="0" />
  <g
     fill="none"
     fill-rule="evenodd"
     id="g6"
     clip-path="url(#clipPath1116)"
     transform="translate(-97.298416,0.89593381)">
    <path
       fill="#f3b53b"
       d="m 114.2,10.6 c 0.74,0 1.34,-0.39 1.43,-0.88 l 0.72,-8.24 C 116.35,0.67 115.4,0 114.2,0 113,0 112.05,0.67 112.05,1.48 l 0.73,8.24 c 0.08,0.5 0.69,0.87 1.42,0.87 m -4.45,2.58 c 0.37,-0.64 0.34,-1.36 -0.05,-1.68 l -6.77,-4.74 c -0.7,-0.41 -1.75,0.08 -2.35,1.12 -0.6,1.04 -0.5,2.2 0.2,2.6 l 7.5,3.49 c 0.47,0.17 1.1,-0.16 1.47,-0.8 m 8.9,0 c 0.37,0.64 1,0.97 1.48,0.8 l 7.49,-3.49 c 0.7,-0.4 0.8,-1.56 0.21,-2.6 -0.6,-1.04 -1.66,-1.53 -2.36,-1.12 l -6.77,4.74 c -0.38,0.32 -0.41,1.04 -0.04,1.68 m -4.46,7.7 c 0.74,0 1.34,0.39 1.43,0.88 l 0.72,8.24 c 0,0.81 -0.95,1.48 -2.15,1.48 -1.2,0 -2.15,-0.67 -2.15,-1.48 l 0.73,-8.24 c 0.08,-0.5 0.69,-0.87 1.42,-0.87 m 4.45,-2.57 c 0.37,-0.64 1,-0.97 1.48,-0.8 l 7.49,3.49 c 0.7,0.4 0.8,1.57 0.21,2.6 -0.6,1.04 -1.66,1.53 -2.36,1.12 l -6.77,-4.74 c -0.38,-0.32 -0.41,-1.04 -0.04,-1.67 m -8.91,0 c 0.37,0.63 0.34,1.35 -0.05,1.67 l -6.77,4.74 c -0.7,0.4 -1.75,-0.08 -2.35,-1.12 -0.6,-1.04 -0.5,-2.2 0.2,-2.6 l 7.5,-3.49 c 0.47,-0.17 1.1,0.16 1.47,0.8 M 129.2,24 h 0.07 c 0.08,0 0.15,-0.03 0.15,-0.1 0,-0.06 -0.04,-0.1 -0.14,-0.1 h -0.08 z m 0,0.36 h -0.16 v -0.65 l 0.25,-0.02 c 0.13,0 0.18,0.02 0.23,0.05 0.04,0.03 0.07,0.08 0.07,0.14 0,0.08 -0.06,0.13 -0.14,0.16 0.06,0.02 0.1,0.08 0.12,0.16 0.02,0.1 0.03,0.14 0.05,0.16 h -0.16 c -0.02,-0.02 -0.04,-0.08 -0.06,-0.15 -0.01,-0.07 -0.05,-0.1 -0.13,-0.1 h -0.08 v 0.26 z m 0.1,-0.86 c -0.3,0 -0.51,0.24 -0.51,0.53 0,0.29 0.22,0.52 0.51,0.52 0.29,0 0.5,-0.23 0.5,-0.52 a 0.5,0.5 0 0 0 -0.5,-0.53 z m 0,-0.13 c 0.38,0 0.67,0.29 0.67,0.66 0,0.37 -0.3,0.66 -0.67,0.66 a 0.66,0.66 0 0 1 -0.68,-0.66 c 0,-0.37 0.3,-0.66 0.68,-0.66 z"
       id="path4" />
  </g>
  <rect
     style="opacity:0;fill:#000000;stroke:#302718"
     id="rect873"
     width="33.955894"
     height="39.331497"
     x="95.685738"
     y="-6.2715368"
     clip-path="url(#clipPath1112)"
     transform="translate(-97.298416,0.89593381)" />
  <rect
     style="opacity:0;fill:#000000;stroke:#302718"
     id="rect919"
     width="33.955898"
     height="35.926949"
     x="95.685738"
     y="-2.8669882"
     clip-path="url(#clipPath1108)"
     transform="translate(-97.298416,0.89593381)" />
  <rect
     style="opacity:0;fill:#000000;stroke:#302718"
     id="rect921"
     width="33.955894"
     height="35.926949"
     x="95.685738"
     y="-2.8669882"
     clip-path="url(#clipPath1104)"
     transform="translate(-97.298416,0.89593381)" />
  <ellipse
     style="opacity:0;fill:#000000;stroke:#302718"
     id="path945"
     cx="114.23157"
     cy="14.424535"
     rx="20.696072"
     ry="20.427292"
     clip-path="url(#clipPath1100)"
     transform="translate(-97.298416,0.89593381)" />
</svg>
